<?xml version="1.0" encoding="UTF-8"?>
<svg id="Ebene_1" data-name="Ebene 1" xmlns="http://www.w3.org/2000/svg" version="1.1" viewBox="0 0 37.3 37.3">
  <defs>
    <style>
      .cls-1 {
        fill: #000;
        stroke-width: 0px;
      }
    </style>
  </defs>
  <path class="cls-1" d="M17,30.5h3.3v3.4h-3.3v-3.4ZM13.6,20.3v3.4h6.7v3.4h-6.7v10.1h10.2v-17h-10.2ZM3.3,23.7h3.4v3.4h-3.4v-3.4ZM0,13.5v17h10.2v-10.2H3.3v-6.7H0ZM30.6,23.7h3.3v3.4h-3.3v-3.4ZM33.9,13.5v6.7h-6.7v10.2h10.2V13.5h-3.4ZM0,0v10.1h3.3V3.4h3.4v6.7h3.4V0H0ZM17,3.4h3.3v3.3h-3.3v-3.3ZM13.6,0v17h10.2v-3.4h-6.8v-3.4h6.8V0h-10.2ZM33.9,0v6.7h-3.3V0h-3.4v10.1h10.2V0h-3.4Z"/>
</svg>