<?xml version="1.0" encoding="UTF-8"?>
<svg id="a" data-name="Ebene 1" xmlns="http://www.w3.org/2000/svg" width="372.1" height="372.12" viewBox="0 0 372.1 372.12">
  <path d="M198.83,372.12h-25.47s-2.82-.68-2.82-.68l-6.99-.58c-64.34-7.92-119.85-48.68-146.84-107.53C3.84,235.28-1.36,205.9.3,174.83c2.62-49.05,24.95-94.62,61.35-127.43C91.19,20.78,127.43,4.98,166.88.55c6.54-.73,12.71-.46,19.24-.52,7.93-.07,15.33-.09,23.31.99,22.96,3.1,44.74,10.01,65.12,20.91,5.79,3.1,10.91,6.4,16.36,9.97,6.75,4.43,12.8,9.48,18.89,14.81,36.79,32.24,59.44,79.18,62.17,128.12l.14,21.85c-2.73,43.3-19.6,83.52-48.91,115.24-30.35,32.85-70.07,53.35-114.48,58.94l-6.99.57-2.89.69ZM348.36,272.72c27.46-51.26,28.86-112.03,4.43-164.71-16.66-35.92-45.78-66.6-80.83-84.93C221.52-3.3,162.88-5.21,110.87,17.94c-21.87,9.74-41.06,23.3-57.54,40.65-14.27,15.02-25.73,31.55-34.35,50.4-23.99,52.48-22.36,112.78,4.89,163.73,17.35,32.42,44.12,59.09,76.69,76.13,89.65,46.89,200.08,12.94,247.8-76.13Z"/>
  <path d="M85.47,266.01c-11.99.63-23.12.96-35.18.63-1.25-.03-2.97-1.86-3.02-2.89-.23-4.62,8.65-2.24,16.39-5.8-3.49-3.61-3.91-7.61-.63-10.56,1.99-1.79,5.24-3,7.95-4.01-10.54-21.62-14.58-43.38-12.97-67.06,2.51-36.82,21.01-70.4,50.34-92.75,29.04-22.12,65.62-30.52,101.56-23.93,30.02,5.51,56.43,21.47,75.8,45.02,21.01,25.56,30.76,57.15,28.55,90.57-3.97,60.14-50.15,109.31-109.8,118.04-45.93,5.99-89.5-10.84-119-47.26ZM262.23,153.11l2.67,18.81c3.71,26.19.02,41.58-11.5,64.89-1.34.22-3.35-.53-3.79-1.4-.47-.92-.15-3.01.5-3.98,11.25-16.78,10.73-34.68,8.89-54.25l-1.41-15.03-1.08-12.84c-.29-3.47.1-8.05,1.65-11.12,3.67-7.28,12.18-12.62,20.22-12.5-3.08-4.44-7.16-7.55-11.34-10.8l-5.02-7.69c-1.9-2.91-6.27-4.94-9.84-4.33-9.97,1.72-18.36,15.35-23.02,25.05-6.06,12.65-9.86,25.65-13.3,39.29-1.03,4.09-4.81,7.43-8.24,9.64l-26.92,17.35c-7.84,5.05-15.4,9.83-22.81,15.44-16.47,12.48-32.85,22.03-52.65,28.38l-34.85,11.58-1.26,2.13c-.3.5.93,2.35,1.49,2.23l4.7-.95c.65-.13,2.01.21,2.58.53s.55,2.67-.02,2.98l-6.17,3.38c-1.41.77-2.43,1.59-3.61,2.7l14.57-1.59c16.21-1.77,25.66-.29,41.11,4.72,1,.32,1,3.34.27,4.03-.62.59-2.31.98-3.27.6-10.46-4.16-20.89-5.59-32.49-4.62,7.86,9.25,16.11,17.71,26.29,24.12l12.01,7.56,10.89,4.84,13.23,4.76c9.6,3.45,19.55,4.83,29.68,4.83h11.46c10.13,0,20.07-1.4,29.68-4.84l13.24-4.75,12.26-5.81c25.4-14.15,45.16-36.09,56.05-63.1,23.6-58.5.94-124.89-53.46-156.59-52.89-30.83-120.01-19.25-159.73,27.33-32.55,38.18-39.15,92.15-17.28,137.07l.22-6.62,9.63-.03.04-23.22,17.56-.02.13,6.27,4.25-.07v-24.66s7.7-.07,7.7-.07l.07-19.5,13.97.06v26.84s5.29-.1,5.29-.1v-18.24s16.21,0,16.21,0v11.2s5.47-.1,5.47-.1l-.03-32.05,7.72-.04.04-18.55,7.35-3.46.98-19.44.82-7.55.86,12.86.94,14.14,6.87,3.16v31.82s8.78-.06,8.78-.06l.02-17.67,10.13.02.14-7.9,18.02-.12c4.78-16.41,10.4-35.55,23.6-45.17,8.61-6.27,20.63-6.52,27.09,2.03l5.17,6.84c7.58,2.57,11.96,9.65,15.37,17.57-10.24,1.21-22.24,3.28-24.77,12.86-.83,3.17-.52,7.33-.01,10.89Z"/>
  <path d="M35.18,205.97c-1.65.61-5.33.6-6.91.07-4.45-1.5-6.87-5.61-6.83-9.75s2.48-8.38,6.73-9.74c1.7-.55,5.27-.54,6.81-.05,4.41,1.4,6.64,5.28,6.87,9.16.25,4.29-1.66,8.47-6.66,10.32Z"/>
  <path d="M344.16,205.97c-1.63.61-5.31.6-6.9.08-4.51-1.49-6.94-5.58-6.88-9.77s2.32-8.34,6.88-9.77c1.63-.51,5.1-.52,6.72,0,4.3,1.41,6.66,5.28,6.79,9.27.13,4.13-1.61,8.31-6.61,10.19Z"/>
  <path d="M231.6,46.22c-2.62,1.94-8.99,1.06-11.44-3.18l-1.15,1.94-3.85-.94,7.03-27.29,4.49.94-3.06,12.34c2.96-1.94,6.01-1.96,8.94-.24,5.34,3.13,4.43,12.45-.96,16.44ZM229.25,41.42c1.78-1.93,2.11-5.14.84-7.28-.98-1.64-4.14-1.98-5.56-.99-2.63,1.84-3.56,5.09-1.77,7.71,1.18,1.75,4.78,2.42,6.5.55Z"/>
  <path d="M101.12,68.38c-2.84,3.36-7.37,4.26-10.75,1.97-4.66-3.16-6.89-8.98-3.92-13.44,1.58-2.38,4.14-3.46,7.79-3.64l-6.77-9.59,3.77-2.86,16.19,23.01-2.98,2.22-1.94-1.27c-.22.86-.85,2.96-1.39,3.6ZM99.53,61.44c-.79-2.99-3.28-4.94-6.44-4.23-1.16.26-2.97,2.24-2.92,3.38.04,1.01.79,3.08,1.47,3.96,1.43,1.86,3.89,2.52,5.59,1.64,1.59-.82,2.77-3.02,2.31-4.76Z"/>
  <path d="M322.2,128.98l9.63-4.82c.73-.37,1.83-1.6,1.96-2.28s-.56-2.24-1.12-2.88c-.7-.81-3.49-1.3-4.47-.85l-9.07,4.18-1.98-4.06,25.04-12.11,2.21,4.06-8.35,3.97-2.89,1.66c2.76.95,4.61,2.63,5.29,4.8.73,2.34-.29,5.62-2.5,6.72l-11.63,5.78-2.11-4.17Z"/>
  <path d="M161.07,32.89l6.9-1.54c.63-.14-.39-2.34-1.04-2.4-2.31-.22-4.45.48-6.73,1.88l-3.35-1.87c2.64-3.96,6.82-5.07,11.37-4.09,2.55.55,4.74,3.37,5.08,6.02l1.35,10.57c-1.04.82-3.41.49-4.59-.55-2.59,1.91-6.12,3.43-9.81,2.2-1.82-.61-3.01-3.25-3.09-5.22-.07-1.67,1.77-4.51,3.9-4.99ZM169.22,35.28l-5.05.64c-.66.08-1.83,1.56-1.64,2.22s1.77,1.3,2.5,1.26c2.71-.17,4.49-1.38,4.2-4.12Z"/>
  <path d="M250.49,48.47c-.32,4.4,3.01,5.58,7.85,5.59.91,0,1.9,2.4,1.7,3.34-6.72,2.4-14.6-2.98-14.31-8.43.18-3.35,1.77-6.82,4.39-8.77,2.36-1.75,5.53-1.93,8.16-.94,2.26.85,5.04,3.18,5.54,6.17.46,2.72-.68,5.63-2.01,8.26l-11.33-5.2ZM259.3,48.11c.44-3.15-.81-4.52-2.53-5.12s-3.69.34-4.67,1.81l7.2,3.31Z"/>
  <path d="M68.04,83.2l4.79-5.61-2.12-.88c-2.5,1.05-3.99,2.94-4.89,5.79l-3.87.42c.02-5,2.84-9.4,8.18-10.66,1.8-.43,4.97.97,6.22,2.2l7.69,7.62-3.98,2.52c-1.26,2.74-2.95,6.08-6.22,7.34-1.98.76-4.72-.56-5.79-1.92-1.42-1.81-1.55-5.02-.01-6.82ZM75.91,85.06c1.13-1.12,1.07-3.5-.3-4.74-1.2,1.16-3.22,3.35-3.97,4.64-.33.56,1.17,2.37,1.76,2.1s1.44-.93,2.51-2Z"/>
  <path d="M278.1,72.89l6.6-8.88c.65-.87.32-3.5-.68-4.17-1.87-1.24-4.64-.69-5.74.78l-5.91,7.94-3.77-2.76,10.61-14.2,3.28,2.11.13,1.96c2.99.27,5.21,1.16,6.63,3.03,1.53,2.02,1.24,5.26-.33,7.41l-7.08,9.66-3.73-2.89Z"/>
  <path d="M199.32,24.06l4.71.11-1.06,17.93c-1.98.28-3.31-.43-3.84-2.19-2.62,1.83-6.14,3.03-9.51.85-1.62-1.05-2.82-3.96-2.7-5.94l.69-11.56,4.6.32-.58,11.06c-.08,1.63,1.54,3.32,3.65,3.1,1.36-.14,3.42-2.44,3.49-3.7l.55-9.97Z"/>
  <path d="M46.1,133.24l-1.58-3.94c2.48-.76,4.2-3.83,3.81-6.16-.12-.7-2.23-.75-2.67-.23l-3.82,4.5c-.78.92-3.7,1.01-4.74.54-1.17-.54-3.16-2.55-3.17-3.86-.05-4.67,2.02-7.98,5.87-9.97l1.4,3.94c-1.54,1.1-3.13,2.92-3.13,4.14,0,.44,1.36,1.62,1.57,1.66l4.46-5.03c.99-1.11,3.85-1.44,5.56-.77,1.44.56,3.19,3.04,3.04,4.91-.37,4.7-2.19,7.71-6.6,10.27Z"/>
  <path d="M312.72,94.71c-1.7,1.29-3.05,3.31-2.84,4.73.27,1.81,1.92,3.14,4.24,4.13l-.45,4.09c-5.27-.94-9.01-5.48-8.45-10.83.33-3.14,3.21-5.66,5.79-7.01,3.64-1.91,7.62-1.44,10.3,1.7,2.02,2.36,2.8,4.96,2.79,8.35l-4.46-1.02c-.41-2.1-.89-3.8-1.74-4.44-1.11-.84-3.89-.68-5.17.3Z"/>
  <path d="M57.7,107.41l-7.63-5.12-2.03,1.34-2.56-1.75c1.37-4.05-2.2-5.89-1.73-6.82l.96-1.9,4.17,2.76,2.55-3.81,3.37,2.07-2.54,4.05,7.05,4.6c.69.45,2.85-1.51,3.33-2.28l3.74,1.86-3.13,4.42c-.82,1.16-4.32,1.39-5.55.57Z"/>
  <path d="M147.5,43.98c.23.72.65,2.2.4,2.34l-1.66.93c-2.94,1.65-6.97.38-8.02-2.9l-2.57-7.98-2.61-.57-.63-2.93c3.79-2.04.93-6.05,4.59-7.25l1.91,4.81,4.18-1.15,1.14,3.59-4.26,1.61,2.24,7.17c.84,2.68,4.62.14,5.31,2.33Z"/>
  <path d="M125.31,49.9l2.07,3.79c-1.74,1.16-4.68,2.36-6.39,2.19-1.09-.11-3.19-1.87-3.65-2.81l-3.69-7.55-2.44-.07-1.37-2.92c1.3-1.25,1.87-2.47,1.9-3.91l.06-2.66c.01-.6,1.25-.95,2.1-1.15l1.89,4.25,4.01-1.7,1.79,3.54-4.02,2.12,3.22,6.58c.22.45,1.05,1.71,1.44,1.55l3.06-1.26Z"/>
  <path d="M232.74,341.21l-.41,1.76c-.08.35-1.37-.31-1.55-.48l-5.61-18.04,2.9-.89,13.83,11.82-4.16-14.62,2.09-.38,5.74,18.25-3.04.57-13.86-12,4.06,14Z"/>
  <path d="M219.51,345.32l-6.01-6.38c-.47-.5-2.79-.09-3.22.18l1.25,8.19-2.2.11-3.21-19.11,6.24-1.14c3.37-.62,6,1.35,6.55,4.67.44,2.64-.82,5.03-3.45,6.1l6.68,7.09c-.44.29-2.28.67-2.63.29ZM216.28,334.38c.8-.87-.1-4.49-1.19-4.74-1.75-.41-4.64-.19-6.37.16l1.08,6.93c2.1-.09,4.85-.56,6.49-2.35Z"/>
  <path d="M158.91,328.15c.13-.6,2.08-.63,2.31-.17l-2.86,13.29c-.77,3.58-4.19,5.04-7.42,4.58-4.08-.58-6.55-3.89-5.73-7.92l2.63-12.93c.55.14,2.01.72,2.08.99l-2.44,11.97c-.62,3.04.94,5.04,3.22,5.65,2.52.68,5.05-.7,5.69-3.69l2.52-11.79Z"/>
  <path d="M190.47,340.03l.27,6.91,9.08-.22c.26-.03-.06,2-.54,2.01l-10.65.32-.9-19.47,11.21-.54c-.09.73-.58,2.09-.96,2.11l-7.86.35.26,6.47,7.01-.28v2.05s-6.9.29-6.9.29Z"/>
  <path d="M179.3,349.08l-12.61-1.1c-.17-.22.05-2.15.46-2.7l10.16-13.89-8.79-.84c-.38-.04-.44-1.81-.19-2.03l12.36.93c-.26.9-.76,2.47-1.24,3.12l-10.06,13.64,9.6.79c-.05-.31.09.58.31,2.08Z"/>
  <polygon points="136.8 340.05 136.45 341.98 126 338.56 132.28 319.77 134.38 320.55 128.84 337.2 136.8 340.05"/>
  <path d="M292.94,81.29c1.01-.63,3.12.19,3.84,1.29.63.97.04,3.24-1.19,3.98-1.02.61-3.02.08-3.88-1.1-.73-.99-.24-3.26,1.23-4.17Z"/>
</svg>