<?xml version="1.0" encoding="UTF-8"?>
<svg id="a" data-name="Ebene 1" xmlns="http://www.w3.org/2000/svg" width="375" height="375" viewBox="0 0 375 375">
  <path d="M200.25,0c-.13.37.75.45,1.49.53l7.57.78c25.08,2.59,51.49,11.65,73.15,24.5,51.31,30.43,84.57,81.72,91.43,140.9l.49,7.29c.03.41.31,1.81.61,1.5v24c-.38-.14-.45.77-.52,1.48l-.88,9.13c-2.89,30.03-14.32,58.47-31.39,83.3-22.94,33.35-55.48,58.08-93.63,71.37-12.76,4.45-25.1,7.46-38.52,8.85l-7.58.78-2.23.59h-25.5l-2.23-.58-7.57-.78c-12.44-1.27-23.85-3.96-35.72-7.9C60.04,342.79,10.06,282.58,1.4,210.11l-.88-9.13c-.07-.71-.14-1.63-.52-1.48l.05-24.03c.28-.8.54-2.08.61-2.8l.77-8.49C8.46,107.89,40.65,57.92,88.82,28.05,111.17,14.18,139.48,3.78,165.7,1.3l6.91-.65c.56-.05,1.88-.46,2.17-.62l25.47-.02ZM207.08,371.6c19.44-2.01,37.73-7.01,55.11-14.61,72.79-31.85,116.94-106.99,109.81-186.23-6.15-68.25-49.12-126.78-112.21-153.8-45.68-19.57-98.9-19.57-144.59,0C41.07,48.7-4.17,123.41,2.98,203.99c5.94,67.04,48.05,125.99,109.68,152.94,17.77,7.77,36.25,12.76,55.59,14.71l19.24.99,19.59-1.03Z"/>
  <path d="M178.43,315.64c-35.46-2.05-68.31-19.86-90.74-46.9-12.3.77-23.74,1.09-36.03.74-1.26-.04-2.99-1.85-3.01-2.88-.1-4.7,8.57-2.19,16.37-5.82-3.68-3.74-3.82-8.02-.24-10.89,2.16-1.73,5.38-2.84,8.27-3.75-11.11-21.78-15.31-44.29-13.66-68.48,2.3-33.69,18.33-65.15,43.77-87.25,16.06-13.94,34.91-23.45,55.68-28.31,17.62-4.11,40.29-4.07,57.9.14,20.95,5.01,39.77,14.67,55.89,28.89,25.16,22.21,40.9,53.69,43.01,87.28,1.62,25.8-3.44,49.48-15.95,71.8-21,37.5-60.17,62.93-103.13,65.43h-18.13ZM254.7,239.86c-1.68-.21-3.24-.82-3.69-1.52-.38-.59-.43-2.59.06-3.31,11.54-16.94,11.22-34.82,9.31-55l-1.42-15.02-1.08-12.84c-.29-3.47.1-8.05,1.65-11.12,3.68-7.28,12.18-12.61,20.22-12.51-3.09-4.42-7.14-7.58-11.34-10.78l-4.69-7.3c-1.98-3.09-6.37-5.37-10.18-4.73-9.93,1.68-18.36,15.36-23.01,25.05-6.06,12.65-9.86,25.65-13.3,39.29-1.03,4.09-4.81,7.43-8.24,9.64l-26.92,17.35c-7.83,5.05-15.4,9.83-22.81,15.44-16.48,12.49-32.83,22.01-52.64,28.39l-34.38,11.39-1.78,2.27c-.36.45.97,2.4,1.53,2.29l4.7-.96c.65-.13,2.03.21,2.61.52s.55,2.68-.05,3.01l-6.65,3.63c-1.12.61-2.14,1.5-3.07,2.43l14.53-1.59c16.22-1.77,25.72-.28,40.97,4.67,1.12.36,1.13,3.39.41,4.08-.62.59-2.32.98-3.27.61-10.24-4.08-20.4-5.51-31.54-4.68l7.69,8.16,8.17,7.53,10.69,8.06,9.82,5.92,11.55,5.67,11.56,4.23,11.96,3.05,13.52,2.08c7.88,1.21,15.98,1.23,23.85,0l14.15-2.21c20.17-3.15,48.4-18.59,62.36-33.59l8.69-9.34,7.69-10.27,5.94-9.83,5.63-11.57,3.87-10.46c6.52-20.33,7.66-41.6,3.68-62.62l-3.54-13.8-4.01-10.99-5.63-11.58-5.94-9.81-7.7-10.29-7.9-8.6-8.14-7.6-10.7-8.05-10.72-6.47-12.3-5.76c-16.72-7.83-40.54-10.27-59.3-8.68-11.57.98-27.37,4.69-37.51,9.57l-10.66,5.12c-6.15,2.95-15.39,9.54-20.94,14.25-44.52,37.76-57.73,99.51-32.55,151.83l.39-5.09,9.57-.02.04-23.22,17.57-.02.16,6.31,4.21-.14v-24.65s7.71-.07,7.71-.07l.04-19.48,13.99.02v26.85s5.29-.1,5.29-.1v-18.24s16.21,0,16.21,0v11.2s5.47-.08,5.47-.08l-.02-32.07,7.72-.05.04-18.55,7.35-3.46,1.02-20.07.78-6.91.95,14.28.85,12.72,6.87,3.17v31.85s8.75-.02,8.75-.02l.06-17.74,10.12.02.13-7.93h17.92s6.05-18.71,6.05-18.71c1.62-5.02,4.12-9.64,6.75-14.21,2.76-4.81,6.44-9.08,10.9-12.33,8.59-6.27,20.61-6.52,27.09,2.02l5.19,6.84c7.53,2.55,11.98,9.64,15.34,17.57-10.19,1.15-22.33,3.34-24.75,12.84-.82,3.24-.53,7.28-.06,10.6l2.71,19.11c1.17,8.23,1.67,16.37,1.2,24.67-.8,13.95-6.63,27.58-12.77,40.41Z"/>
  <path d="M358.03,189.58c-.99,5.73-6.21,8.7-11.09,8.29-4.9-.41-8.9-4.61-9.37-9.3-.52-5.14,2.82-9.79,7.5-11.11,4.99-1.4,10.22.79,12.44,5.92.58,1.34.84,4.36.53,6.2Z"/>
  <path d="M17.1,190.18c-.43-1.78-.3-4.87.19-6.23,1.91-5.29,7-7.74,12.08-6.64,4.72,1.02,8.27,5.49,8.11,10.55s-3.91,9.17-8.75,9.92-10.26-1.95-11.63-7.6Z"/>
  <path d="M235.36,45.27c-1.82,1.93-4.75,2.29-7.16,1.76-2.84-.63-4.74-2.88-5.84-5.21l-1.11,3.03-2.64-.85,7.24-25.41,3.13.67-2.83,10.23c3.29-1.35,6.05-1.64,8.73-.22,5.09,2.71,5.41,10.79.49,16.01ZM233.51,42.55c1.84-2.22,2.64-5.96,1.65-8.49s-4.44-4.15-6.99-3.09c-2,.84-3.54,3.55-4.12,5.71-.76,2.87.36,5.6,2.24,6.77,2.3,1.43,5.22,1.5,7.22-.9Z"/>
  <path d="M93.52,72.52c-3.92-1.14-6.78-4.7-7.68-8.23-.79-3.13.35-6.01,2.7-8.04,1.85-1.6,3.99-1.96,6.98-1.83l-6.26-8.28,2.42-2.04,16.1,20.86-2.05,1.79-2.14-1.61c-.38,5.03-4.87,8.9-10.07,7.39ZM94.32,69.67c1.97.86,4.8-.34,5.73-1.51.86-1.09,1.7-3.66,1.35-5-.94-3.64-3.38-6.1-7.05-6.61-1.44-.2-4.06,1.5-4.77,2.72-2.13,3.65.37,8.5,4.74,10.41Z"/>
  <path d="M321.73,136.43l12.33-5.03c1.25-.51,1.89-3.3,1.42-4.53-1.12-2.94-3.83-4.91-6.9-3.79l-10.33,3.76-1.22-2.87,24.44-9.47,1.41,2.92-10.11,3.84c3.85,1.88,6.36,4.67,5.77,8.97-.25,1.82-2.84,4.11-4.63,4.82l-10.76,4.22-1.43-2.84Z"/>
  <path d="M77.63,93.1c-2.03,1.63-4.92,1.65-6.62.5-2.01-1.36-3.09-4.65-1.54-6.81l5.06-7.06c-1.19-1.17-4.17-2.38-5.15-1.6-4.32,3.39-4.33,7.97-4.85,7.84l-2.14-.54c.51-3.46,2.27-6.83,5.44-9.5,3.8-3.2,8.26,1.03,12.25,4.45l4.59,3.94-1.51,2.56-2.12-1.45c-.11,3.19-.8,5.58-3.4,7.68ZM75.18,91.39c2.28-.75,3.83-3.15,3.76-4.77-.09-2.03-.75-3.39-2.6-5.47l-4.68,6.22c-.44.58-.2,2.57.26,3.12s2.44,1.16,3.26.89Z"/>
  <path d="M162.34,41.86c-1.16-.66-2.4-2.38-2.65-3.38-1.21-4.91,4.74-6.66,11.63-7.68.56-.7-.64-4-1.88-4.37-3.35-.98-6.26.45-9.1,2.25-.25.14-1.25-1.93-.97-2.33,2.1-1.55,6.26-3.04,9.14-2.89s5.6,2.33,5.97,5.14l1.66,12.69c-1.14.2-2.38.51-2.48.19l-.82-2.61c-2.17,3.24-6.16,5.45-10.5,3ZM164.49,39.8c2.47.98,4.98.17,6.01-1.06,1.38-1.64,1.66-3.6,1.42-5.65l-6.93,1.31c-.91.17-2.31,1.87-2.28,2.72.03.7,1.12,2.42,1.78,2.68Z"/>
  <path d="M255.09,55.3c1.9,1.26,4.97,1.74,7.06,1.82l.12,1.66c.13,1.83-9.34.99-12.32-5.76-1.55-3.5-.17-7.4,2.17-10.1,3.12-3.61,7.78-4.31,11.84-1.52,4.27,2.94,4.25,7.64,1.57,12.43l-12.55-6.58c-1.24,2.9-1.01,5.98,2.11,8.05ZM263.99,50.65c1.9-4.09.24-6.53-2.59-7.91-2.3-1.12-5.37-.44-7.4,2.59l9.99,5.32Z"/>
  <path d="M281.97,76.4l7.11-8.67c.7-.86,1.67-3.6,1.21-4.6-.73-1.57-2.96-3.04-4.26-3.15s-4.11.83-5.03,1.9l-7.05,8.28c-.82-.93-1.74-2.15-1.81-2.54l11.17-13.68,2.4,1.82-1.49,2.37c2.86-.43,5.26.23,7.3,2.06,2.61,2.35,3.05,5.7.68,8.64l-7.31,9.05c-.44.53-2.68-.74-2.9-1.5Z"/>
  <path d="M206.73,23.28l-1.26,18.48-2.69-.09-.5-2.88c-1.85,2.14-4.35,3.24-7.28,2.66-3.09-.61-5.31-2.96-5.12-6.24l.71-12.74,3.24.11-.82,11.88c-.07,1.03.91,3.46,1.89,3.96,2.54,1.29,7.44-.35,7.73-3.86l.95-11.26,3.14-.02Z"/>
  <path d="M55.77,128.09c.3,5.05-2.54,10.36-5.79,11.23-.5.13-1.2-1.61-.81-1.96,4.16-3.69,5.3-9.04,2.68-10.34-.75-.37-2.62.4-3.12,1.17l-3,4.73c-.66,1.05-2.88,2.47-4.09,2.51-1.34.05-4.09-1.6-4.53-2.87-1.62-4.67.74-8.97,4.19-11.89l2.07,1.23c-2.32,2.24-4.06,4.83-4.26,7.72-.06.87,1.1,2.58,1.87,2.73s2.48-.71,2.99-1.47l3.65-5.5c.74-1.11,3.71-1.81,4.94-1.36,1.3.47,3.13,2.5,3.23,4.07Z"/>
  <path d="M150.13,45.28c-1.13,1.81-5.54,3.12-8.05,1.55-.95-.59-2.61-2.54-2.96-3.6l-3.01-9.1-2.01.21c-.33.03-1.54.48-1.67.17l-.79-1.9,3.55-1.43-1.54-5.43,2.9-.88,1.7,5.29,6.05-1.81.63,2.39-5.84,1.97,2.98,9.14c.27.84,1.11,2.13,1.82,2.49s2.85.1,3.55-.29l1.54-.86c.42-.23,1.41,1.68,1.16,2.09Z"/>
  <path d="M59.26,111.31l-9.41-5.5-1.98,3.01-2.1-1.09,1.86-3.15-4.73-2.94,1.53-2.66,4.69,2.78,3.31-5.31,2.11,1.34-3.02,5.4,8.07,4.58c.73.41,2.71,1.06,3.41.61,2.49-1.58,1.87-3.45,4.05-4.18,1.57-.53,1.78,4.17-2.74,7.23-.87.59-4.03.46-5.05-.14Z"/>
  <path d="M125.89,52.33l1.96-1.24c.34-.22,1.12.77,1.19,1.17.25,1.6-3.67,4.18-6.79,3.71-1.81-.27-3.82-2.13-4.71-3.9l-4.32-8.58-3.47,1.62-.93-2.19,3.25-1.8-2.45-4.79,2.75-1.39,2.58,5.03,5.55-3.1.99,2.6-5.43,2.7,4.69,8.92c.96,1.83,3.37,2.36,5.14,1.24Z"/>
  <path d="M310.51,101.49c-2.11,3.99.43,8.12,4.35,8.99l-1.36,2.4c-4.4-1.78-7.6-5.99-6.49-10.84,1.02-4.45,6-8.09,10.54-7.85,5.31.28,8.8,5.66,8.47,10.56l-2.69.72c.46-4.41-1.43-7.55-5.48-8.06-2.42-.3-6.07,1.69-7.34,4.08Z"/>
  <path d="M203.46,346.31c.23-.09,1.42.38,1.26.55l-.97,1.02c-2.07,2.17-6.8,2.1-9.29-.13-1.94-1.74-2.71-5.42-1.68-7.92.71-1.71,2.42-3.27,3.7-3.7,1.61-.54,5.16-.18,6.16,1.04,1.31,1.61,1.77,3.49,2.13,5.52l-10.16.87c.18,1.12,1.54,3.52,2.62,3.7,1.94.33,4.87-.42,6.23-.96ZM202.66,341.35c-.75-3.66-2.92-4.13-5.01-3.74-1.77.33-3.24,2.46-2.91,4.21l7.92-.47Z"/>
  <path d="M228.6,336.12l2.32,7.31-2.14.57-3.77-11.43c-.1-.31.92-1.75,1.13-1.49l1.42,1.81,2.41-3.06c.76-.97,4.18-1.03,5.18-.31.55.39,1.72,2.06,1.96,2.78l2.74,8.04-2.09.79-3.31-9.13c-.36-.99-3.48-.86-4.27-.28-.92.68-2.01,3.06-1.58,4.41Z"/>
  <path d="M166.1,335.18l2.29.14-2.48,13.04-2.19-2.15c-.7.47-3.3,1.16-4.78.98-1.3-.16-3.7-2.32-3.47-3.68l1.72-10.07c.15-.48,2.02.57,1.93,1.14l-1.34,8.75c-.17,1.14,2.7,2.5,3.77,2.26s2.93-1.81,3.16-3.01l1.39-7.4Z"/>
  <path d="M146.73,342.01c.56.18.64,1.63.34,2.22l-11.38-3.71,5.95-18.04,2.15.88-5.23,15.99,8.17,2.65Z"/>
  <path d="M185.53,347.94c0-.15,0,1.24,0,1.83l-11.25-.87,8.83-10.62-7.23-.42-.04-1.84,9.3.5c.44.02.6,1.7.29,2.06l-7.45,8.68,7.55.68Z"/>
  <path d="M215.94,346.84l-2.31.47-2.47-12.89,3.12.45,3.79-2.09c.27-.15,1.32,1.48,1.06,1.6l-1.68.83c-1.98.97-3.35,2.8-2.88,5.06l1.37,6.57Z"/>
  <polygon points="296.12 91.2 293.33 88.12 296.55 85.5 299.12 88.8 296.12 91.2"/>
</svg>