<?xml version="1.0" encoding="utf-8"?>
<!-- Generator: Adobe Illustrator 19.1.0, SVG Export Plug-In . SVG Version: 6.00 Build 0)  -->
<svg version="1.1" id="Layer_1" xmlns="http://www.w3.org/2000/svg" xmlns:xlink="http://www.w3.org/1999/xlink" x="0px" y="0px"
	 viewBox="0 0 288 64.9" style="enable-background:new 0 0 288 64.9;" xml:space="preserve">
<style type="text/css">
	.st0{fill:#237FBE;}
	.st1{fill:#333335;}
</style>
<path d="M-81.5-163.5L-106-188c-0.3-0.3-0.6-0.5-0.9-0.7c4.1-6.3,6.5-13.9,6.5-22c0-22.4-18.1-40.5-40.5-40.5
	c-22.4,0-40.5,18.1-40.5,40.5c0,22.4,18.1,40.5,40.5,40.5c8.1,0,15.7-2.4,22-6.6c0.2,0.3,0.4,0.6,0.7,0.9l24.5,24.5
	c1.7,1.7,3.9,2.5,6,2.5c2.2,0,4.4-0.8,6-2.5C-78.2-154.8-78.2-160.2-81.5-163.5z M-140.8-183.1c-15.3,0-27.7-12.4-27.7-27.7
	s12.4-27.7,27.7-27.7c15.3,0,27.7,12.4,27.7,27.7S-125.5-183.1-140.8-183.1z"/>
<path d="M63-228.5c-3,1.3-6.2,2.2-9.5,2.6c3.4-2.1,6.1-5.3,7.3-9.2c-3.2,1.9-6.7,3.3-10.5,4c-3-3.2-7.3-5.2-12.1-5.2
	c-9.2,0-16.6,7.4-16.6,16.6c0,1.3,0.1,2.6,0.4,3.8c-13.8-0.7-26-7.3-34.2-17.3c-1.4,2.4-2.2,5.3-2.2,8.3c0,5.8,2.7,10.8,7.2,13.8
	c-2.7-0.1-4.8-0.8-7.7-2.1c0,0.1,0,0.1,0,0.2c0,8,5.9,14.7,13.5,16.3c-1.4,0.4-2.8,0.6-4.3,0.6c-1.1,0-2.1-0.1-3.1-0.3
	c2.1,6.6,8.3,11.4,15.5,11.5c-5.7,4.4-12.8,7.1-20.6,7.1c-1.3,0-2.7-0.1-4-0.2c7.3,4.7,16.1,7.5,25.4,7.5
	c30.5,0,47.2-25.3,47.2-47.2c0-0.7,0-1.4,0-2.1C58-222.2,60.8-225.1,63-228.5z"/>
<g>
	<g>
		<path d="M220.8-134.6h-18.7v-9.1c0,0-1-8.7,5-8.7h12.3v-18.7h-21c0,0-17.6-0.1-17.6,17.6c0,3.8,0,10.7,0,18.9h-12v15h12
			c-0.1,23.9-0.2,50.6-0.2,50.6h21.4v-50.6h14.2L220.8-134.6z M220.8-134.6"/>
	</g>
</g>
<g>
	<g>
		<path class="st0" d="M15.6,26.9c0.1,0.2,0.3,0.4,0.5,0.6c0.2,0.3,0.5,0.6,0.9,0.8c0.4,0.3,0.9,0.5,1.5,0.7
			c0.6,0.2,1.3,0.3,2.2,0.3c0.3,0,0.6,0,0.9-0.1c0.3,0,0.6-0.1,0.9-0.2c0.6-0.3,1-0.6,1.2-0.9c0.2-0.4,0.2-0.7,0.2-1
			c0-0.5-0.1-0.9-0.4-1.2c-0.3-0.2-0.6-0.4-0.8-0.5c-0.1-0.1-0.7-0.2-1.9-0.5l-2-0.4c-1-0.2-1.7-0.4-2.1-0.6
			c-0.2-0.1-0.4-0.2-0.7-0.4c-0.3-0.2-0.6-0.4-0.9-0.7c-0.3-0.3-0.6-0.8-0.8-1.3c-0.2-0.5-0.4-1.1-0.4-1.7c0-1.6,0.6-2.9,1.8-3.9
			c1.2-0.9,2.7-1.4,4.7-1.4c1.8,0,3.2,0.4,4.2,1.1c1,0.7,1.8,1.5,2.4,2.3l-2.5,1.9c-0.1-0.2-0.3-0.5-0.5-0.8
			c-0.2-0.3-0.5-0.5-0.8-0.8c-0.3-0.3-0.7-0.5-1.2-0.7c-0.5-0.2-1-0.3-1.7-0.3c-0.8,0-1.6,0.2-2.1,0.5c-0.6,0.4-0.9,0.9-1,1.5
			c0,0.7,0.3,1.2,1,1.4c0.3,0.1,0.6,0.2,1,0.3c0.4,0.1,0.7,0.2,1.1,0.2l1.7,0.4c0.6,0.1,1.2,0.3,1.8,0.5c0.6,0.2,1.2,0.5,1.7,0.9
			c0.5,0.4,1,0.8,1.3,1.4c0.3,0.6,0.5,1.4,0.5,2.3c0,1.9-0.8,3.3-2.2,4.1c-1.4,0.9-3,1.3-4.8,1.3c-0.9,0-1.9-0.1-2.9-0.4
			c-0.3-0.1-0.6-0.2-0.9-0.4c-0.3-0.1-0.7-0.3-1.1-0.6c-0.8-0.5-1.6-1.2-2.2-2.2L15.6,26.9z"/>
		<path class="st0" d="M41.6,17.9H37v14.1H34V17.9h-4.4V15h12V17.9z"/>
		<path class="st0" d="M47.8,15v16.9h-3V15H47.8z"/>
		<path class="st0" d="M56.4,22.1h6.9v2.7h-6.9v7.2h-3V15h10.9v2.8h-7.8V22.1z"/>
		<path class="st0" d="M78.5,17.9H74v14.1h-3.1V17.9h-4.4V15h12V17.9z"/>
		<path class="st0" d="M95,15v10.7c0,0.5,0,0.9,0,1.4c0,0.4-0.1,0.9-0.2,1.3c-0.1,0.4-0.3,0.8-0.5,1.2c-0.3,0.4-0.6,0.8-1.1,1.2
			c-0.9,0.7-1.8,1.2-2.7,1.4c-0.9,0.2-1.7,0.3-2.3,0.3c-1,0-2-0.2-2.9-0.5c-1-0.4-1.7-0.9-2.3-1.5c-0.6-0.6-0.9-1.3-1.1-1.9
			c-0.1-0.3-0.1-0.7-0.2-1.2c0-0.5-0.1-1.2-0.1-2.2V15h3.1v10.4c0,0.4,0,0.7,0,1c0,0.4,0.1,0.7,0.2,1c0.4,0.8,0.9,1.3,1.5,1.5
			c0.7,0.2,1.3,0.3,1.8,0.3c0.3,0,0.7,0,1.2-0.2c0.2,0,0.5-0.1,0.7-0.2c0.3-0.1,0.5-0.3,0.7-0.5c0.4-0.4,0.7-0.9,0.8-1.4
			c0.1-0.5,0.1-1.1,0.1-1.8V15H95z"/>
		<path class="st0" d="M110.4,15h3v16.9h-2.7l-7.2-11.9l0.2,11.9h-3V15h2.8l7.3,12L110.4,15z"/>
		<path class="st0" d="M132.3,22.7v9.3h-2.6v-1.4c-0.7,0.7-1.5,1.2-2.2,1.5c-0.8,0.3-1.5,0.4-2.2,0.4c-2.5,0-4.5-0.9-5.8-2.7
			c-1.3-1.7-2-3.7-2-6.1c0-2.7,0.8-4.9,2.3-6.6c1.5-1.6,3.4-2.5,5.7-2.5c1.7,0,3.2,0.5,4.4,1.4c1.2,0.9,2,2.1,2.5,3.6l-2.9,1.2
			c-0.1-0.3-0.2-0.6-0.3-0.9c-0.2-0.4-0.4-0.7-0.7-1.1c-0.3-0.4-0.7-0.7-1.2-0.9c-0.5-0.3-1.1-0.4-1.8-0.4c-1.5,0-2.7,0.6-3.5,1.8
			c-0.8,1.1-1.2,2.6-1.2,4.3c0,1.9,0.5,3.3,1.4,4.3c0.8,1,2,1.6,3.3,1.6c0.4,0,0.9-0.1,1.3-0.2c0.5-0.1,0.9-0.3,1.2-0.6
			c0.4-0.3,0.7-0.7,1-1.2c0.3-0.5,0.4-1.1,0.5-1.8h-4.2v-2.8H132.3z"/>
	</g>
	<g>
		<path class="st0" d="M25.1,50.4h-4.5v14.1h-3.1V50.4H13v-2.9h12V50.4z"/>
		<path class="st0" d="M31.4,47.5v16.9h-3V47.5H31.4z"/>
		<path class="st0" d="M39.8,50.3v4h7.9V57h-7.9v4.5H49v2.9H36.8V47.5h11.7v2.8H39.8z"/>
		<path class="st0" d="M53.3,47.5h5.2c1.1,0,2,0,2.8,0.2c0.8,0.1,1.6,0.5,2.3,1.1c0.5,0.4,1,1,1.3,1.7c0.3,0.7,0.5,1.5,0.5,2.5
			c0,0.8-0.1,1.5-0.4,2c-0.2,0.6-0.6,1-0.9,1.4c-0.8,0.7-1.4,1.1-2,1.2l3.7,6.9h-3.5l-3.2-6.3h-2.7v6.3h-3V47.5z M56.4,50.2v5.3h1.1
			c0.9,0,1.6,0,2,0c0.2,0,0.5,0,0.8-0.1c0.3,0,0.6-0.2,1-0.3c0.3-0.2,0.6-0.4,0.8-0.8c0.2-0.4,0.3-0.8,0.3-1.4c0-0.1,0-0.3,0-0.5
			c0-0.2-0.1-0.4-0.2-0.6c-0.1-0.2-0.2-0.5-0.4-0.7c-0.2-0.2-0.4-0.4-0.8-0.6c-0.3-0.2-0.7-0.3-1.2-0.3c-0.5,0-1.2,0-2.1,0H56.4z"/>
		<path class="st0" d="M79.3,47.5v16.9h-3V47.5H79.3z"/>
		<path class="st0" d="M100,47.5v16.9h-3l0.3-13.9l-3.5,13.9h-2.8l-3.6-13.9l0.3,13.9h-3V47.5h4.5l3.2,12.6l3.1-12.6H100z"/>
		<path class="st0" d="M111.8,47.5h5.2c1.1,0,2,0,2.8,0.2c0.8,0.1,1.6,0.5,2.3,1.1c0.5,0.4,1,1,1.3,1.7c0.3,0.7,0.5,1.5,0.5,2.5
			c0,0.8-0.1,1.5-0.4,2c-0.2,0.6-0.6,1-0.9,1.4c-0.8,0.7-1.4,1.1-2,1.2l3.7,6.9h-3.5l-3.2-6.3h-2.7v6.3h-3V47.5z M114.8,50.2v5.3
			h1.1c0.9,0,1.6,0,2,0c0.2,0,0.5,0,0.8-0.1c0.3,0,0.6-0.2,1-0.3c0.3-0.2,0.6-0.4,0.8-0.8c0.2-0.4,0.3-0.8,0.3-1.4
			c0-0.1,0-0.3,0-0.5c0-0.2-0.1-0.4-0.2-0.6c-0.1-0.2-0.2-0.5-0.4-0.7c-0.2-0.2-0.4-0.4-0.8-0.6c-0.3-0.2-0.7-0.3-1.2-0.3
			c-0.5,0-1.2,0-2.1,0H114.8z"/>
		<path class="st0" d="M131.7,50.3v4h7.9V57h-7.9v4.5h9.2v2.9h-12.3V47.5h11.7v2.8H131.7z"/>
		<path class="st0" d="M158,59.7c-0.1,0.3-0.2,0.6-0.5,1.1c-0.2,0.5-0.5,0.9-1,1.5c-0.6,0.7-1.3,1.3-2.2,1.8
			c-0.9,0.5-2.1,0.8-3.4,0.8c-2.2,0-4-0.8-5.5-2.4c-1.5-1.5-2.2-3.7-2.2-6.6c0-2.9,0.8-5.1,2.4-6.6c1.5-1.5,3.3-2.3,5.4-2.3
			c1.3,0,2.3,0.2,3.2,0.6c0.8,0.4,1.5,0.9,2,1.5c0.5,0.6,0.9,1.2,1.1,1.7c0.2,0.6,0.4,1,0.5,1.3l-3.1,0.8c0-0.2-0.1-0.4-0.2-0.7
			c-0.1-0.3-0.2-0.6-0.4-0.9c-0.1-0.1-0.2-0.3-0.3-0.5c-0.2-0.2-0.4-0.3-0.6-0.5c-0.2-0.2-0.5-0.3-0.8-0.4c-0.3-0.1-0.7-0.1-1.2-0.1
			c-1.3,0-2.4,0.5-3.3,1.6c-0.8,1.1-1.3,2.5-1.3,4.3c0,1.9,0.5,3.4,1.3,4.4c0.9,1.1,1.9,1.6,3.2,1.6c0.8,0,1.4-0.2,1.9-0.5
			c0.5-0.3,0.9-0.7,1.2-1.1c0.3-0.4,0.5-0.7,0.6-1c0.1-0.3,0.2-0.5,0.2-0.7L158,59.7z"/>
		<path class="st0" d="M174.5,47.5v16.9h-3.2v-7.7h-7v7.7h-3.1V47.5h3.1v6.4h7v-6.4H174.5z"/>
		<path class="st0" d="M189.9,50.4h-4.5v14.1h-3.1V50.4h-4.4v-2.9h12V50.4z"/>
	</g>
	<g>
		<path class="st0" d="M158.9,22.1h6.9v2.7h-6.9v7.2h-3V15h10.9v2.8h-7.8V22.1z"/>
		<path class="st0" d="M183.6,15v10.7c0,0.5,0,0.9,0,1.4c0,0.4-0.1,0.9-0.2,1.3c-0.1,0.4-0.3,0.8-0.5,1.2c-0.3,0.4-0.6,0.8-1.1,1.2
			c-0.9,0.7-1.8,1.2-2.7,1.4c-0.9,0.2-1.7,0.3-2.3,0.3c-1,0-2-0.2-2.9-0.5c-1-0.4-1.7-0.9-2.3-1.5c-0.6-0.6-0.9-1.3-1.1-1.9
			c-0.1-0.3-0.1-0.7-0.2-1.2c0-0.5-0.1-1.2-0.1-2.2V15h3.1v10.4c0,0.4,0,0.7,0,1c0,0.4,0.1,0.7,0.2,1c0.4,0.8,0.9,1.3,1.5,1.5
			c0.7,0.2,1.3,0.3,1.8,0.3c0.3,0,0.7,0,1.2-0.2c0.2,0,0.5-0.1,0.7-0.2c0.3-0.1,0.5-0.3,0.7-0.5c0.4-0.4,0.7-0.9,0.8-1.4
			c0.1-0.5,0.1-1.1,0.1-1.8V15H183.6z M176,10.5v3h-2.6v-3H176z M180.6,10.5v3h-2.6v-3H180.6z"/>
		<path class="st0" d="M189.3,15h5.2c1.1,0,2,0,2.8,0.2c0.8,0.1,1.6,0.5,2.3,1.1c0.5,0.4,1,1,1.3,1.7c0.3,0.7,0.5,1.5,0.5,2.5
			c0,0.8-0.1,1.5-0.4,2c-0.2,0.6-0.6,1-0.9,1.4c-0.8,0.7-1.4,1.1-2,1.2l3.7,6.9h-3.5l-3.2-6.3h-2.7v6.3h-3V15z M192.4,17.7V23h1.1
			c0.9,0,1.6,0,2,0c0.2,0,0.5,0,0.8-0.1c0.3,0,0.6-0.2,1-0.3c0.3-0.2,0.6-0.4,0.8-0.8c0.2-0.4,0.3-0.8,0.3-1.4c0-0.1,0-0.3,0-0.5
			c0-0.2-0.1-0.4-0.2-0.6c-0.1-0.2-0.2-0.5-0.4-0.7c-0.2-0.2-0.4-0.4-0.8-0.6c-0.3-0.2-0.7-0.3-1.2-0.3c-0.5,0-1.2,0-2.1,0H192.4z"
			/>
		<path class="st0" d="M212.1,15h5.9c0.7,0,1.5,0,2.3,0.2c0.8,0.1,1.7,0.5,2.5,1.1c0.7,0.5,1.2,1,1.7,1.7c0.4,0.7,0.7,1.3,1,2
			c0.4,1.4,0.5,2.6,0.5,3.6c0,1.5-0.3,2.9-0.8,4.2c-0.5,1.3-1.4,2.4-2.6,3.1c-0.8,0.5-1.6,0.7-2.5,0.8c-0.9,0.1-1.8,0.2-2.8,0.2
			h-5.3V15z M215.1,17.9v11.2h1.3c1.1,0,2,0,2.5-0.1c0.6,0,1-0.1,1.3-0.3c0.3-0.1,0.6-0.3,0.9-0.5c0.3-0.2,0.5-0.5,0.8-0.9
			c0.2-0.4,0.4-0.9,0.6-1.5c0.1-0.6,0.2-1.3,0.2-2.2c0-0.4,0-0.9,0-1.4c-0.1-0.5-0.2-1-0.3-1.5c-0.2-0.5-0.4-1-0.7-1.4
			c-0.3-0.4-0.8-0.8-1.4-1.1c-0.4-0.2-0.8-0.3-1.2-0.4c-0.5,0-1.2-0.1-2.2,0H215.1z"/>
		<path class="st0" d="M238,28.6h-6.2l-1,3.3h-3.3l5.5-16.9h3.5l5.6,16.9h-3.3L238,28.6z M237.2,25.9l-2.3-7.8l-2.3,7.8H237.2z"/>
		<path class="st0" d="M246.5,26.9c0.1,0.2,0.3,0.4,0.5,0.6c0.2,0.3,0.5,0.6,0.9,0.8c0.4,0.3,0.9,0.5,1.5,0.7
			c0.6,0.2,1.3,0.3,2.2,0.3c0.3,0,0.6,0,0.9-0.1c0.3,0,0.6-0.1,0.9-0.2c0.6-0.3,1-0.6,1.2-0.9c0.2-0.4,0.2-0.7,0.2-1
			c0-0.5-0.1-0.9-0.4-1.2c-0.3-0.2-0.6-0.4-0.8-0.5c-0.1-0.1-0.7-0.2-1.9-0.5l-2-0.4c-1-0.2-1.7-0.4-2.1-0.6
			c-0.2-0.1-0.4-0.2-0.7-0.4c-0.3-0.2-0.6-0.4-0.9-0.7c-0.3-0.3-0.6-0.8-0.8-1.3c-0.2-0.5-0.4-1.1-0.4-1.7c0-1.6,0.6-2.9,1.8-3.9
			c1.2-0.9,2.7-1.4,4.7-1.4c1.8,0,3.2,0.4,4.2,1.1c1,0.7,1.8,1.5,2.4,2.3l-2.5,1.9c-0.1-0.2-0.3-0.5-0.5-0.8
			c-0.2-0.3-0.5-0.5-0.8-0.8c-0.3-0.3-0.7-0.5-1.2-0.7c-0.5-0.2-1-0.3-1.7-0.3c-0.8,0-1.6,0.2-2.1,0.5c-0.6,0.4-0.9,0.9-1,1.5
			c0,0.7,0.3,1.2,1,1.4c0.3,0.1,0.6,0.2,1,0.3c0.4,0.1,0.7,0.2,1.1,0.2l1.7,0.4c0.6,0.1,1.2,0.3,1.8,0.5c0.6,0.2,1.2,0.5,1.7,0.9
			c0.5,0.4,1,0.8,1.3,1.4c0.3,0.6,0.5,1.4,0.5,2.3c0,1.9-0.8,3.3-2.2,4.1c-1.4,0.9-3,1.3-4.8,1.3c-0.9,0-1.9-0.1-2.9-0.4
			c-0.3-0.1-0.6-0.2-0.9-0.4c-0.3-0.1-0.7-0.3-1.1-0.6c-0.8-0.5-1.6-1.2-2.2-2.2L246.5,26.9z"/>
	</g>
	<g>
		<g>
			<rect y="38" class="st1" width="288" height="3"/>
		</g>
	</g>
	<g>
		<g>
			<rect x="143" class="st1" width="3" height="38"/>
		</g>
	</g>
</g>
</svg>
